<svg xmlns="http://www.w3.org/2000/svg" width="69.998" height="48.126" viewBox="0 0 69.998 48.126">
  <g id="Group_107" data-name="Group 107" transform="translate(-685 -246)">
    <g id="Group">
      <g id="Group-2" data-name="Group">
        <path id="Vector" d="M0,15.55l23.6,14.92V0Z" transform="translate(731.398 254.874)"/>
      </g>
    </g>
    <g id="Group-3" data-name="Group">
      <g id="Group-4" data-name="Group">
        <path id="Vector-2" data-name="Vector" d="M0,0V30.469L23.6,15.55Z" transform="translate(685 254.874)"/>
      </g>
    </g>
    <g id="Group-5" data-name="Group">
      <g id="Group-6" data-name="Group">
        <path id="Vector-3" data-name="Vector" d="M65.5,0H4.244A4.321,4.321,0,0,0,0,3.723L34.871,26.7,69.741,3.723A4.321,4.321,0,0,0,65.5,0Z" transform="translate(685.127 246)"/>
      </g>
    </g>
    <g id="Group-7" data-name="Group">
      <g id="Group-8" data-name="Group">
        <path id="Vector-4" data-name="Vector" d="M42.256,0,36.065,4.082a2.2,2.2,0,0,1-2.406,0L27.468,0,0,17.374a4.314,4.314,0,0,0,4.235,3.693H65.489a4.314,4.314,0,0,0,4.235-3.693Z" transform="translate(685.146 273.06)"/>
      </g>
    </g>
  </g>
</svg>
