<svg xmlns="http://www.w3.org/2000/svg" width="19.033" height="19.033" viewBox="0 0 19.033 19.033">
  <g id="Icon_ionic-md-close-circle-outline" data-name="Icon ionic-md-close-circle-outline" transform="translate(-3.375 -3.375)">
    <path id="Path_12316" data-name="Path 12316" d="M12.891,5.3A7.592,7.592,0,1,1,7.52,7.52,7.563,7.563,0,0,1,12.891,5.3m0-1.922a9.516,9.516,0,1,0,9.516,9.516,9.515,9.515,0,0,0-9.516-9.516Z" fill="#fff"/>
    <path id="Path_12317" data-name="Path 12317" d="M20.2,18.872,18.872,20.2l-3.427-3.427L12.019,20.2l-1.331-1.331,3.427-3.427-3.427-3.427,1.331-1.331,3.427,3.427,3.427-3.427L20.2,12.019l-3.427,3.427Z" transform="translate(-2.554 -2.554)" fill="#fff"/>
  </g>
</svg>
