<svg xmlns="http://www.w3.org/2000/svg" width="15.818" height="17.409" viewBox="0 0 15.818 17.409">
  <g id="Calendar" transform="translate(-1.636 -0.841)">
    <path id="Vector" d="M0,0H14.178" transform="translate(2.46 7.481)" fill="none" stroke="#c09301" stroke-linecap="round" stroke-linejoin="round" stroke-width="1.5"/>
    <path id="Vector-2" data-name="Vector" d="M0,0H.008" transform="translate(13.079 10.587)" fill="none" stroke="#c09301" stroke-linecap="round" stroke-linejoin="round" stroke-width="1.5"/>
    <path id="Vector-3" data-name="Vector" d="M0,0H.008" transform="translate(9.549 10.587)" fill="none" stroke="#c09301" stroke-linecap="round" stroke-linejoin="round" stroke-width="1.5"/>
    <path id="Vector-4" data-name="Vector" d="M0,0H.008" transform="translate(6.012 10.587)" fill="none" stroke="#c09301" stroke-linecap="round" stroke-linejoin="round" stroke-width="1.5"/>
    <path id="Vector-5" data-name="Vector" d="M0,0H.008" transform="translate(13.079 13.679)" fill="none" stroke="#c09301" stroke-linecap="round" stroke-linejoin="round" stroke-width="1.5"/>
    <path id="Vector-6" data-name="Vector" d="M0,0H.008" transform="translate(9.549 13.679)" fill="none" stroke="#c09301" stroke-linecap="round" stroke-linejoin="round" stroke-width="1.5"/>
    <path id="Vector-7" data-name="Vector" d="M0,0H.008" transform="translate(6.012 13.679)" fill="none" stroke="#c09301" stroke-linecap="round" stroke-linejoin="round" stroke-width="1.5"/>
    <path id="Vector-8" data-name="Vector" d="M0,0V2.618" transform="translate(12.762 1.591)" fill="none" stroke="#c09301" stroke-linecap="round" stroke-linejoin="round" stroke-width="1.5"/>
    <path id="Vector-9" data-name="Vector" d="M0,0V2.618" transform="translate(6.336 1.591)" fill="none" stroke="#c09301" stroke-linecap="round" stroke-linejoin="round" stroke-width="1.5"/>
    <path id="Vector-10" data-name="Vector" d="M10.53,0H3.8C1.459,0,0,1.3,0,3.693v7.2a3.455,3.455,0,0,0,3.8,3.761h6.728c2.343,0,3.8-1.309,3.8-3.7V3.693C14.325,1.3,12.874,0,10.53,0Z" transform="translate(2.386 2.847)" fill="none" stroke="#c09301" stroke-linecap="round" stroke-linejoin="round" stroke-width="1.5"/>
  </g>
</svg>
