<svg xmlns="http://www.w3.org/2000/svg" width="44" height="44" viewBox="0 0 44 44">
  <g id="Group_58763" data-name="Group 58763" transform="translate(-959 -3154)">
    <circle id="Ellipse_2" data-name="Ellipse 2" cx="22" cy="22" r="22" transform="translate(959 3154)" fill="#d5d1d1"/>
    <g id="noun-avatar-1012568" transform="translate(816.6 3081.602)">
      <path id="Path_11963" data-name="Path 11963" d="M164.032,78.4A15.632,15.632,0,1,0,179.665,94.03,15.646,15.646,0,0,0,164.032,78.4Zm0,1.737a13.9,13.9,0,0,1,10.978,22.417,7.343,7.343,0,0,0-2.673-1.1c-1.1-.261-2.168-.423-2.755-.638a.867.867,0,1,0-.6,1.628,27.062,27.062,0,0,0,2.945.706,6.8,6.8,0,0,1,1.927.719,13.923,13.923,0,0,1-19.649,0,6.8,6.8,0,0,1,1.927-.719,27.067,27.067,0,0,0,2.945-.706.867.867,0,1,0-.6-1.628c-.586.215-1.657.377-2.755.638a7.342,7.342,0,0,0-2.673,1.1,13.9,13.9,0,0,1,10.978-22.417Zm0,3.04a8.5,8.5,0,0,0-4.885,1.574,5.62,5.62,0,0,0-2.5,4.532,17.968,17.968,0,0,0,1.75,8.481,6.169,6.169,0,0,0,11.263,0,17.966,17.966,0,0,0,1.75-8.481,5.62,5.62,0,0,0-2.5-4.532A8.5,8.5,0,0,0,164.032,83.175Zm0,1.737a6.908,6.908,0,0,1,3.867,1.235,3.827,3.827,0,0,1,1.778,3.135,16.537,16.537,0,0,1-1.547,7.653,4.434,4.434,0,0,1-8.2,0,16.537,16.537,0,0,1-1.547-7.653,3.826,3.826,0,0,1,1.778-3.135A6.908,6.908,0,0,1,164.032,84.911Z" transform="translate(0 0)" fill="#535353"/>
    </g>
  </g>
</svg>
