<svg xmlns="http://www.w3.org/2000/svg" width="71.609" height="71.609" viewBox="0 0 71.609 71.609">
  <g id="Group_3801" data-name="Group 3801" transform="translate(-14.519 -14.496)">
    <path id="Path_11796" data-name="Path 11796" d="M83.314,36.364A35.921,35.921,0,1,0,86.128,50.3,35.683,35.683,0,0,0,83.314,36.364Zm-.958,27.469A34.88,34.88,0,1,1,85.088,50.3,34.649,34.649,0,0,1,82.356,63.832Z" transform="translate(0 0)" fill="#fff" opacity="0"/>
    <path id="Path_11797" data-name="Path 11797" d="M196.237,421.2c-.969-.607-2.826-.158-4.279.132s-2.234.9-2.692.581,1.4-1.663,2.476-2.032,1.911-.844,2.449-.369.781.633,1-.053.511-2.006-.161-2.454c-.62-.414-2.072-.106-3.284.554a8.8,8.8,0,0,0-3.311,3.088,5.354,5.354,0,0,0-.612,2.051c-.5.3-3.684,2.135-5.656,1.483-1.5-.5-2.095-2.366-.965-4.854a16.286,16.286,0,0,1,5.892-6.447c2.179-1.41,3.984-2.279,2.988-.814s-4.21,4.849-6.358,5.215c-.391.067-.436.641-.467,1.557s-.256,1.525.989.884a22.26,22.26,0,0,0,4.9-4.4c1.432-1.679,2.768-4.083,2.768-5.609s-2.3-.4-3.362.305a28.953,28.953,0,0,0-6.942,6.471c-2.242,3.175-1.992,6.807-.934,7.815s2.833,1.038,4.451.549a11.119,11.119,0,0,0,2.847-1.413.727.727,0,0,0,.464.348,5.224,5.224,0,0,0,3.661-1c1.319-.792,2.823-1.082,2.8-.317A43.027,43.027,0,0,1,192.9,432.6c-1.534,4.593-2.934,7.6-4.306,8.736s-1.642,1.161-2.422.924-1-.607-1.346-.237a2.682,2.682,0,0,0-.377,1.768c0,.713-.135,1.478,1.157,1.135s1.642-1.241,2.261-1.821a11.943,11.943,0,0,0,3.876-5.041,100.017,100.017,0,0,0,3.8-10.426C196.183,425.578,197.206,421.8,196.237,421.2Z" transform="translate(-155.254 -370.331)" fill="#fff"/>
    <path id="Path_11798" data-name="Path 11798" d="M469.539,542.741c-.619-.4-1-.026-1.05,1.056s-.3,1.109-1.75,2.3a10.472,10.472,0,0,1-3.5,2.111c-.35-.053.027-2.27.242-2.956s.646-.765.646-1.452-1.108-2.005-1.534-1.927-.619,1.161-.861,2.375.3,5.041.4,6.018,1.023.554,2.153-.317,3.257-3.7,3.526-3.722-.108,1.821-.457,3.722a59.525,59.525,0,0,0-.538,6.7c-.135,2.375-1.211,6.995-1.211,7.681s.888,1.293,1.561,1.742.942-.264.942-.739.054-3.748.108-6.229.108-5.938.269-7.865,1.7-5.068,2.126-6.2A1.928,1.928,0,0,0,469.539,542.741Z" transform="translate(-419.808 -495.121)" fill="#fff"/>
    <path id="Path_11799" data-name="Path 11799" d="M628.4,491.042c.162-.977-.538-1.135-.538-1.135a4.3,4.3,0,0,1,0,1.24c-.108.528-1.184.95-2.584.977a18.657,18.657,0,0,1-4.468-.449c-.269-.211.834-.95,1.911-1.98a4.54,4.54,0,0,0,1.507-3.774c.054-1.9-.781-2.428-1.426-2.718s-3.149,1.636-4.468,2.9a9.089,9.089,0,0,0-1.965,3.035c-.3.053-1.669-1.979-1.992-1.927s-.215,4.909-.269,6.466.188,11.085.188,12.669a10.978,10.978,0,0,1-.269,3.036c-.188.66-.161,1.029.135,1.293a12.7,12.7,0,0,0,1.319.924c.377.238.754.264.754-.158a16.12,16.12,0,0,0-.323-2.613,8.544,8.544,0,0,1-.619-2.375v-9.475a3.486,3.486,0,0,1,.754-2.481c.565-.845.808-2.666,1.777-4.8a8.308,8.308,0,0,1,4.252-4.065c1.427-.607,1.292-.185,1.292,1.689s-2.907,3.273-4.118,3.985-1.884,1.795-1.561,2.138,4.064-.343,6.917-.739S628.233,492.019,628.4,491.042Z" transform="translate(-562.731 -440.018)" fill="#fff"/>
    <path id="Path_11800" data-name="Path 11800" d="M735.89,216.316c-.3-.237-5.6.211-5.6.211a35.035,35.035,0,0,0,2.422-4.883c.4-1.425.7-5.094.269-6.308s-1.238-3.88-4.333-3.986-2.934,4.2-2.853,6.467,2.045,8.868,2.045,8.868a30.487,30.487,0,0,1-5.114-.475c-1.13-.185-3.418-.5-3.66-.475s.592.95,1.023,1.478.7.765.888.712a15.744,15.744,0,0,1,2.961-.185,5.517,5.517,0,0,1,3.31.842c.377.314.189,2.114.3,3.808a37.026,37.026,0,0,1-.162,7.043,57.727,57.727,0,0,0-.807,7.232c-.054,2.27.807,3.669,1.1,3.695s1.131-.686,1.507-.607,0,3.59.215,3.669.754-.29.915-.712a13.665,13.665,0,0,0-.3-3.484c-.215-1.531-.565-3.642-.861-7.126s-.565-12.035-.538-12.616.215-1,.592-1.031,6.648-.025,7.106-.025,1.238.132,1.1-.211A10.4,10.4,0,0,0,735.89,216.316Zm-6.756.132a62.989,62.989,0,0,1-1.13-8.1c-.027-2.613.539-5.971,1.8-6.071s1.75,4.645,1.453,7.522A24.968,24.968,0,0,1,729.134,216.448Z" transform="translate(-661.424 -175.427)" fill="#fff"/>
  </g>
</svg>
