<?xml version="1.0" standalone="no"?>
<!DOCTYPE svg PUBLIC "-//W3C//DTD SVG 20010904//EN"
 "http://www.w3.org/TR/2001/REC-SVG-20010904/DTD/svg10.dtd">
<svg version="1.0" xmlns="http://www.w3.org/2000/svg"
 width="100.000000pt" height="100.000000pt" viewBox="0 0 100.000000 100.000000"
 preserveAspectRatio="xMidYMid meet">

<g transform="translate(0.000000,100.000000) scale(0.100000,-0.100000)"
fill="#000000" stroke="none">
<path d="M465 878 c-26 -15 -452 -365 -460 -379 -8 -12 41 -79 58 -79 7 0 105
77 219 170 114 94 212 170 218 170 6 0 102 -75 213 -166 111 -91 208 -168 216
-172 13 -5 70 52 71 70 0 4 -34 36 -75 70 l-75 63 0 120 c0 66 -4 126 -9 133
-5 9 -26 12 -67 10 l-59 -3 -3 -72 -3 -73 -77 64 c-109 89 -127 97 -167 74z"/>
<path d="M332 558 l-162 -133 0 -151 c0 -129 2 -153 16 -158 9 -3 58 -6 109
-6 123 0 125 2 125 126 l0 94 80 0 80 0 0 -91 c0 -129 0 -129 120 -129 54 0
105 3 114 6 14 5 16 29 16 158 l0 151 -154 127 c-85 71 -161 130 -168 133 -9
4 -78 -46 -176 -127z"/>
</g>
</svg>
