<svg xmlns="http://www.w3.org/2000/svg" width="20.8" height="21.706" viewBox="0 0 20.8 21.706">
  <g id="homepage" transform="translate(-10.006 0.304)">
    <g id="Group_58990" data-name="Group 58990" transform="translate(10.256 0.001)">
      <g id="Group_58989" data-name="Group 58989" transform="translate(0 0)">
        <path id="Path_12315" data-name="Path 12315" d="M30.282,9.288,20.87.2a.706.706,0,0,0-.986,0L10.473,9.288a.71.71,0,0,0,.493,1.22h1.251v9.935a.71.71,0,0,0,.71.71h4.967a.71.71,0,0,0,.71-.71V14.766h3.548v5.677a.71.71,0,0,0,.71.71h4.967a.71.71,0,0,0,.71-.71V10.508h1.251a.71.71,0,0,0,.493-1.22Zm-1.744.51a.71.71,0,0,0-.71.71v9.935H22.861V14.766a.71.71,0,0,0-.71-.71H18.6a.71.71,0,0,0-.71.71v5.677H12.926V10.508a.71.71,0,0,0-.71-.71H10.966L20.377.712,29.792,9.8H28.538Z" transform="translate(-10.256 -0.001)" stroke="#000" stroke-width="0.5"/>
      </g>
    </g>
  </g>
</svg>
