<svg xmlns="http://www.w3.org/2000/svg" width="140.454" height="140.454" viewBox="0 0 140.454 140.454">
  <path id="Icon_awesome-check-circle" data-name="Icon awesome-check-circle" d="M141.017,70.79A70.227,70.227,0,1,1,70.79.563,70.227,70.227,0,0,1,141.017,70.79Zm-78.35,37.185,52.1-52.1a4.531,4.531,0,0,0,0-6.407l-6.407-6.407a4.531,4.531,0,0,0-6.408,0L59.463,85.548,39.624,65.709a4.531,4.531,0,0,0-6.408,0l-6.407,6.407a4.531,4.531,0,0,0,0,6.407l29.45,29.45a4.531,4.531,0,0,0,6.408,0Z" transform="translate(-0.563 -0.563)" fill="#03c123"/>
</svg>
