<svg xmlns="http://www.w3.org/2000/svg" width="186.131" height="161.698" viewBox="0 0 186.131 161.698">
  <g id="noun-no-results-4464436" transform="translate(-149.667 -105.856)">
    <path id="Path_12285" data-name="Path 12285" d="M428.077,263.389a26.025,26.025,0,0,1,22.975,13.219c7.259,12.6,3.18,28.307-8.987,35.35a25.637,25.637,0,0,1-35.047-9.849c-7.259-12.6-3.149-28.307,9.016-35.35a24.965,24.965,0,0,1,12.043-3.37Zm-.254-10.883a35.5,35.5,0,0,0-17.24,4.788c-17.388,10.059-23.169,32.688-13.034,50.287,9.482,16.457,29.706,23.023,46.491,15.6l11.595,20.142a5.472,5.472,0,1,0,9.484-5.461L453.27,317.278A37.216,37.216,0,0,0,427.824,252.5Z" transform="translate(-130.048 -78.515)" fill="#b48406"/>
    <path id="Path_12286" data-name="Path 12286" d="M172.145,105.858c-12.179,0-22.478,9.156-22.478,20.868V226.863c0,11.713,10.3,20.868,22.478,20.868h91.207c5.827,0,5.827-8.751,0-8.751l-91.207,0c-7.907,0-13.745-5.553-13.745-12.117l0-98.034H295.725v35.716c0,5.825,8.743,5.825,8.743,0l0-37.822c0-11.713-10.326-20.868-22.492-20.868Z" transform="translate(0)" fill="#b48406"/>
    <path id="Path_12287" data-name="Path 12287" d="M308.02,326.4a6.613,6.613,0,1,1-6.776,6.611A6.7,6.7,0,0,1,308.02,326.4Z" transform="translate(-81.157 -118.083)" fill="#b48406"/>
    <path id="Path_12288" data-name="Path 12288" d="M287.117,214.92c-9.47,2.68-15.9,11.818-13.491,21.091a5.116,5.116,0,1,0,9.9-2.573c-.9-3.512,1.238-7.215,6.357-8.66s10.64.891,12.466,4.35a5.348,5.348,0,0,1,.287,4.8,9.469,9.469,0,0,1-4.394,4.611A20.331,20.331,0,0,0,287.6,256.426a5.119,5.119,0,1,0,10.221,0c0-4.67,1.9-7.016,5.345-8.913a19.373,19.373,0,0,0,8.987-9.863,16.037,16.037,0,0,0-.751-13.3c-4.466-8.486-14.812-12.114-24.282-9.435Z" transform="translate(-66.097 -57.93)" fill="#b48406"/>
  </g>
</svg>
